<mxfile host="app.diagrams.net" modified="2023-08-04T03:50:37.435Z" agent="Mozilla/5.0 (Windows NT 10.0; Win64; x64) AppleWebKit/537.36 (KHTML, like Gecko) Chrome/115.0.0.0 Safari/537.36" etag="bif8ea1oZW0jpqxVaj-x" version="21.6.6" type="device">
  <diagram name="Page-1" id="ZiDRmWSYCF-UxTTB6sLK">
    <mxGraphModel dx="1053" dy="1100" grid="1" gridSize="10" guides="1" tooltips="1" connect="1" arrows="1" fold="1" page="1" pageScale="1" pageWidth="850" pageHeight="1100" math="0" shadow="0">
      <root>
        <mxCell id="0" />
        <mxCell id="1" parent="0" />
        <mxCell id="OA-IgD9wYKdBpW7tIc0P-3" value="" style="edgeStyle=orthogonalEdgeStyle;rounded=0;orthogonalLoop=1;jettySize=auto;html=1;" edge="1" parent="1" source="OA-IgD9wYKdBpW7tIc0P-1" target="OA-IgD9wYKdBpW7tIc0P-2">
          <mxGeometry relative="1" as="geometry" />
        </mxCell>
        <mxCell id="OA-IgD9wYKdBpW7tIc0P-1" value="Say Hello" style="ellipse;whiteSpace=wrap;html=1;fillColor=#dae8fc;strokeColor=#6c8ebf;" vertex="1" parent="1">
          <mxGeometry x="330" y="40" width="190" height="110" as="geometry" />
        </mxCell>
        <mxCell id="OA-IgD9wYKdBpW7tIc0P-5" value="" style="edgeStyle=orthogonalEdgeStyle;rounded=0;orthogonalLoop=1;jettySize=auto;html=1;" edge="1" parent="1" source="OA-IgD9wYKdBpW7tIc0P-2" target="OA-IgD9wYKdBpW7tIc0P-4">
          <mxGeometry relative="1" as="geometry" />
        </mxCell>
        <mxCell id="OA-IgD9wYKdBpW7tIc0P-2" value="What is your name?" style="shape=parallelogram;perimeter=parallelogramPerimeter;whiteSpace=wrap;html=1;fixedSize=1;fillColor=#e1d5e7;strokeColor=#9673a6;" vertex="1" parent="1">
          <mxGeometry x="289" y="190" width="272" height="60" as="geometry" />
        </mxCell>
        <mxCell id="OA-IgD9wYKdBpW7tIc0P-7" value="" style="edgeStyle=orthogonalEdgeStyle;rounded=0;orthogonalLoop=1;jettySize=auto;html=1;" edge="1" parent="1" source="OA-IgD9wYKdBpW7tIc0P-4" target="OA-IgD9wYKdBpW7tIc0P-6">
          <mxGeometry relative="1" as="geometry" />
        </mxCell>
        <mxCell id="OA-IgD9wYKdBpW7tIc0P-4" value="User provides their name." style="shape=parallelogram;perimeter=parallelogramPerimeter;whiteSpace=wrap;html=1;fixedSize=1;fillColor=#d5e8d4;strokeColor=#82b366;" vertex="1" parent="1">
          <mxGeometry x="300" y="290" width="250" height="60" as="geometry" />
        </mxCell>
        <mxCell id="OA-IgD9wYKdBpW7tIc0P-9" value="" style="edgeStyle=orthogonalEdgeStyle;rounded=0;orthogonalLoop=1;jettySize=auto;html=1;" edge="1" parent="1" source="OA-IgD9wYKdBpW7tIc0P-6" target="OA-IgD9wYKdBpW7tIc0P-8">
          <mxGeometry relative="1" as="geometry" />
        </mxCell>
        <mxCell id="OA-IgD9wYKdBpW7tIc0P-6" value="System prints &quot;Hello &amp;lt;name inserted&amp;gt; ." style="shape=parallelogram;perimeter=parallelogramPerimeter;whiteSpace=wrap;html=1;fixedSize=1;fillColor=#e1d5e7;strokeColor=#9673a6;" vertex="1" parent="1">
          <mxGeometry x="288" y="390" width="275" height="60" as="geometry" />
        </mxCell>
        <mxCell id="OA-IgD9wYKdBpW7tIc0P-8" value="End of Process" style="ellipse;whiteSpace=wrap;html=1;fillColor=#f8cecc;strokeColor=#b85450;" vertex="1" parent="1">
          <mxGeometry x="366" y="490" width="120" height="80" as="geometry" />
        </mxCell>
      </root>
    </mxGraphModel>
  </diagram>
</mxfile>
